<?xml version="1.0" encoding="utf-8"?>
<!-- Generator: Adobe Illustrator 25.4.1, SVG Export Plug-In . SVG Version: 6.00 Build 0)  -->
<svg version="1.1" id="Layer_1" xmlns="http://www.w3.org/2000/svg" xmlns:xlink="http://www.w3.org/1999/xlink" x="0px" y="0px"
	 viewBox="0 0 64 64" style="enable-background:new 0 0 64 64;" xml:space="preserve">
<style type="text/css">
	.st0{fill:#33CA36;}
</style>
<path class="st0" d="M57.93,22.39c-8.07,8.07-15.6,15.33-22.86,22.46c-0.94,0.94-1.88,2.69-3.63,2.02
	c-2.02-0.81-1.34-2.69-1.34-4.17c0-6.59,0-12.91,0-19.5c-1.34-0.13-1.75,0.94-2.42,1.48c-7.13,6.99-14.25,13.99-21.11,20.98
	C5.62,46.6,4.55,48.34,2.8,46.6c-1.34-1.48,0.13-2.42,1.08-3.36c8.61-8.47,17.08-16.94,25.69-25.15c0.81-0.81,1.48-1.88,2.82-1.34
	c1.48,0.54,1.34,1.88,1.34,3.23c0,6.72,0,13.72,0,21.79c3.36-3.36,5.78-6.05,8.61-8.61c4.84-4.84,9.95-9.82,14.79-14.66
	c0.94-0.81,1.75-2.02,3.23-1.48c1.75,0.54,1.34,2.29,1.34,3.63c0,7.93,0,15.73,0,23.4c0,1.48,0.4,3.36-1.75,3.36
	c-2.42,0-1.88-2.02-1.88-3.63C57.8,36.78,57.93,30.06,57.93,22.39z"/>
</svg>
