<?xml version="1.0" encoding="utf-8"?>
<!-- Generator: Adobe Illustrator 25.4.1, SVG Export Plug-In . SVG Version: 6.00 Build 0)  -->
<svg version="1.1" xmlns="http://www.w3.org/2000/svg" xmlns:xlink="http://www.w3.org/1999/xlink" x="0px" y="0px"
	 viewBox="0 0 200 50" style="enable-background:new 0 0 200 50;" xml:space="preserve">
<style type="text/css">
	.st0{fill:#33CA36;}
</style>
<g id="Layer_2">
	<path class="st0" d="M46.9,19.1c-6,6-11.6,11.4-17,16.7c-0.7,0.7-1.4,2-2.7,1.5c-1.5-0.6-1-2-1-3.1c0-4.9,0-9.6,0-14.5
		c-1-0.1-1.3,0.7-1.8,1.1C19.1,26,13.8,31.2,8.7,36.4c-0.7,0.7-1.5,2-2.8,0.7c-1-1.1,0.1-1.8,0.8-2.5c6.4-6.3,12.7-12.6,19.1-18.7
		c0.6-0.6,1.1-1.4,2.1-1c1.1,0.4,1,1.4,1,2.4c0,5,0,10.2,0,16.2c2.5-2.5,4.3-4.5,6.4-6.4c3.6-3.6,7.4-7.3,11-10.9
		c0.7-0.6,1.3-1.5,2.4-1.1c1.3,0.4,1,1.7,1,2.7c0,5.9,0,11.7,0,17.4c0,1.1,0.3,2.5-1.3,2.5c-1.8,0-1.4-1.5-1.4-2.7
		C46.8,29.8,46.9,24.8,46.9,19.1z"/>
</g>
<g id="Layer_3">
	<path class="st0" d="M55.7,19.1c0,3.5,0.1,6.3,0,9.1c0,1.4,0.3,2,1.8,1.8c1.5-0.1,2.9,0,4.5,0c0.8,0,1.4,0.3,1.5,1.3
		c0,1-0.7,1.3-1.4,1.4c-2.4,0.1-4.9,0.1-7.3,0c-1.1,0-1.5-0.7-1.5-1.8c0-4.7,0-9.5,0-14.2c0-0.7,0-1.3,0.7-1.7
		c0.7-0.3,1.3,0.1,1.7,0.6c6.7,6.6,13.4,13.1,20.1,19.7c0.7,0.7,1,1.4,0.1,2.1c-1.1,0.8-1.7-0.1-2.2-0.7c-5.2-5-10.3-10.2-15.6-15.2
		C57.5,20.6,56.8,20,55.7,19.1z"/>
</g>
<g id="Layer_4">
	<path class="st0" d="M82.2,25.4c0,3.3,0,6.7,0,10c0,0.8,0.3,2-1.3,2s-1.4-1.1-1.4-2c0-6.1-0.1-12.3,0-18.3c0-1.7-0.6-2.1-2.7-2
		c-2,0.1-3.9,0-5.9,0c-1,0-1.7-0.1-1.8-1c0-0.8,0.7-1.1,1.7-1.1c3.1,0,6.1,0,9.2,0c1.7,0,2.1,0.7,2,1.8C82.2,18.4,82.2,22,82.2,25.4
		z"/>
</g>
<g id="Layer_5">
	<g>
		<path class="st0" d="M97.3,26.2c2.2,0,4.5,0,6.7,0c1.7,0,2.4,0.3,2.4,1.4c-0.1,2.8,0,5.7,0,8.5c0,0.7,0,1.4-1.3,1.4
			c-1.3,0-1.3-0.7-1.3-1.4c0-2.2,0-4.5,0-6.7c0-1-0.3-1.4-2-1.4c-2.9,0.1-6,0.1-8.9,0c-1.8-0.1-2.1,0.4-2.1,1.5c0.1,2.2,0,4.5,0,6.6
			c0,0.8-0.1,1.5-1.5,1.4c-1.3-0.1-1.3-0.8-1.3-1.4c0-2.8,0-5.4,0-8.2c0-1.3,0.8-1.7,2.5-1.7C92.8,26.2,95,26.2,97.3,26.2z"/>
		<path class="st0" d="M97.1,24.5c-2.2,0-4.5,0-6.7,0c-1.7,0-2.4-0.3-2.4-1.4c0.1-2.8,0-5.7,0-8.5c0-0.7,0-1.4,1.3-1.4
			s1.3,0.7,1.3,1.4c0,2.2,0,4.5,0,6.7c0,1,0.3,1.4,2,1.4c2.9-0.1,6-0.1,8.9,0c1.8,0.1,2.1-0.4,2.1-1.5c-0.1-2.2,0-4.5,0-6.6
			c0-0.8,0.1-1.5,1.5-1.4c1.3,0.1,1.3,0.8,1.3,1.4c0,2.8,0,5.4,0,8.2c0,1.3-0.8,1.7-2.5,1.7C101.6,24.5,99.4,24.5,97.1,24.5z"/>
	</g>
</g>
<g id="Layer_6">
	<g>
		<path class="st0" d="M118.1,23.7c-2.1,0-4.3-0.1-6.4,0c-2,0.1-2.7-0.7-2.5-2.4c0.1-2.1,0.1-4,0-6.1c0-1.5,0.6-2.4,2.4-2.2
			c4.5,0.1,8.9,0,13.4,0c1.1,0,2.4,0,2.4,1.1c0,1.4-1.4,1.3-2.5,1.3c-3.5,0-7.1,0.1-10.6,0c-1.8-0.1-2.7,0.3-2.5,2.1
			c0.1,3.8,0,3.8,4,3.8c3.1,0,6.1,0,9.2,0c1,0,2.4-0.1,2.4,1.1s-1.3,1.1-2.2,1.1C122.7,23.7,120.3,23.7,118.1,23.7z"/>
		<path class="st0" d="M118.1,36.8c-2.1,0-4.3-0.1-6.4,0c-2,0.1-2.7-0.7-2.5-2.4c0.1-2.1,0.1-4,0-6.1c0-1.5,0.6-2.4,2.4-2.2
			c4.5,0.1,8.9,0,13.4,0c1.1,0,2.4,0,2.4,1.1c0,1.4-1.4,1.3-2.5,1.3c-3.5,0-7.1,0.1-10.6,0c-1.8-0.1-2.7,0.3-2.5,2.1
			c0.1,3.8,0,3.8,4,3.8c3.1,0,6.1,0,9.2,0c1,0,2.4-0.1,2.4,1.1c0,1.3-1.3,1.1-2.2,1.1C122.7,36.8,120.3,36.8,118.1,36.8z"/>
	</g>
</g>
<g id="Layer_7">
	<path class="st0" d="M164.4,13.6c0.1,1.1,0,2-0.7,3.1c-5,6.4-10,12.8-15.1,19.4c-0.4,0.6-1,1.5-1.8,1c-0.8-0.4-0.6-1.4-0.6-2.4
		c0-5.3,0-10.7,0-16c-0.3-0.1-0.4-0.3-0.6-0.4c-1.5,2.2-3.1,4.5-4.7,6.6c-2.9,3.9-6,7.7-8.8,11.4c-0.4,0.6-0.8,1.1-1.5,0.8
		c-0.7-0.3-0.8-1-0.8-1.7c0.1-7.3-0.3-14.5,0.3-21.6c0.6,0,1.3,0,1.8,0c0,6,0,12.3,0,19.3c3.2-4.2,6-7.7,8.7-11.2
		c2-2.8,4.3-4.9,6-8.1c0.6,0,1.3,0,1.8,0c0,6.3,0,12.3,0,19c5.2-6.7,10.2-12.7,14.9-19C163.6,13.6,164,13.6,164.4,13.6z"/>
</g>
<g id="Layer_8">
	<path class="st0" d="M178.2,13.2c1.7,0.6,3.3,1,4.7,2c0.6,0.4,1.3,1,0.6,1.5c-0.7,0.6-1.5,0.4-2.2,0c-1.1-0.7-2.2-1.3-3.6-1.5
		c-3.2-0.6-6.6,0.4-8.2,2.4c-1.8,2.1-1.7,4.7,0.6,6.7c2,1.7,4.2,3.2,6.4,4.9c1.7,1.3,2.4,2.7,1.7,4.3c-0.7,1.7-2.7,2.5-4.9,2.7
		c-2.8,0.1-5.6,0.1-8.4,0.1c-1,0-2-0.3-1.8-1.1c0.1-0.8,1-0.8,2-0.8c2.5,0,5,0,7.5,0c1.3,0,2.4-0.3,2.9-1.1c0.6-1,0-1.8-0.8-2.4
		c-1.8-1.4-3.8-2.8-5.6-4c-5.9-4.6-4.3-10.5,3.6-13.1c0.3-0.1,0.4-0.3,0.6-0.3C174.9,13.2,176.5,13.2,178.2,13.2z"/>
</g>
<g id="Layer_9">
	<path class="st0" d="M197.7,28.4c-1-2.5-1.5-4.3-0.6-7c1.8-5.2-1.1-9.7-7.4-12.4c-1.8,0-3.6,0-5.2,0v2.5c0.8,0,1.7,0,2.5,0
		c6.8,0.3,9.9,5.7,6.8,11.6c-1,1.7-0.7,2.8,0.4,4.1c2.5,2.9,2.9,6.1,1.2,9.4c-1.7,3.3-4.6,5-8.4,5c-0.8,0-1.7,0-2.5,0v2.8
		c1.4,0,2.8-0.1,4-0.3C196.6,43.2,200.6,35.7,197.7,28.4z"/>
</g>
</svg>
